<?xml version="1.0" standalone="no"?>
<!DOCTYPE svg PUBLIC "-//W3C//DTD SVG 20010904//EN"
 "http://www.w3.org/TR/2001/REC-SVG-20010904/DTD/svg10.dtd">
<svg version="1.0" xmlns="http://www.w3.org/2000/svg"
 width="640.000000pt" height="640.000000pt" viewBox="0 0 640.000000 640.000000"
 preserveAspectRatio="xMidYMid meet">
<metadata>
Created by potrace 1.14, written by Peter Selinger 2001-2017
</metadata>
<g transform="translate(0.000000,640.000000) scale(0.100000,-0.100000)"
fill="#000000" stroke="none">
<path d="M2189 5751 c-14 -5 -36 -17 -48 -27 -12 -11 -117 -208 -232 -439
-116 -231 -214 -423 -218 -427 -4 -4 -202 58 -441 138 -239 80 -454 147 -478
149 -74 5 -144 -48 -158 -120 -7 -38 11 -99 131 -455 37 -107 68 -199 69 -205
2 -5 6 -17 9 -25 33 -87 85 -266 79 -271 -7 -8 -531 -272 -544 -275 -5 -1 -9
-2 -10 -3 -2 -1 -70 -37 -153 -79 -131 -67 -153 -82 -173 -117 -28 -48 -25
-119 7 -164 15 -21 131 -83 448 -242 235 -117 430 -214 432 -215 1 -2 -43
-141 -100 -311 -57 -169 -104 -312 -105 -318 -1 -5 -21 -63 -43 -128 -49 -140
-56 -177 -41 -221 28 -85 124 -123 218 -84 23 9 46 18 50 18 11 1 355 112 367
119 6 3 15 6 20 7 12 2 224 72 245 81 8 3 21 7 28 9 18 3 42 24 42 36 0 27
123 207 187 274 l30 30 -66 34 c-77 40 -130 73 -186 115 -55 42 -191 180 -212
215 -9 17 -21 30 -25 30 -4 0 -8 4 -8 10 0 5 -16 34 -35 65 -20 30 -32 55 -28
55 4 0 3 4 -3 8 -14 9 -70 152 -89 227 -24 94 -28 131 -28 265 -1 129 5 196
23 265 6 22 12 47 14 56 37 152 149 343 280 473 176 176 371 278 611 319 76
13 293 15 360 4 352 -62 641 -268 805 -574 19 -35 37 -63 41 -63 3 0 25 7 48
15 22 8 41 12 41 9 0 -2 17 3 38 11 20 9 38 15 40 15 2 -2 58 7 106 16 11 2
23 7 27 11 6 8 47 120 55 153 4 18 182 549 191 570 3 8 7 17 8 20 0 3 13 44
28 91 37 114 30 160 -33 213 -50 42 -87 43 -203 5 -56 -18 -104 -33 -107 -34
-3 0 -164 -54 -358 -119 -194 -65 -354 -116 -355 -115 -25 44 -137 279 -137
287 0 5 -3 12 -7 14 -5 2 -71 129 -147 282 -123 246 -144 281 -175 300 -39 23
-91 29 -132 17z"/>
<path d="M2138 4355 c-2 -2 -26 -7 -53 -11 -76 -10 -273 -86 -295 -114 -3 -4
-23 -19 -45 -33 -157 -106 -297 -325 -332 -520 -15 -83 -5 -338 14 -369 2 -5
6 -17 8 -28 2 -10 10 -34 18 -52 8 -18 23 -51 32 -73 20 -45 79 -134 119 -180
14 -16 26 -34 26 -39 0 -5 3 -7 6 -3 3 3 17 -7 30 -22 20 -25 103 -84 184
-133 31 -18 155 -64 195 -73 24 -4 51 4 120 38 50 25 106 50 126 57 36 13 37
15 54 94 9 45 19 94 22 111 15 86 131 346 189 422 13 17 24 36 24 41 0 6 3 12
8 14 4 2 24 26 46 53 51 66 222 232 247 240 10 4 19 10 19 15 0 4 23 22 51 39
61 38 60 42 -17 157 -58 88 -154 183 -239 239 -69 45 -185 96 -247 109 -13 3
-34 8 -48 11 -27 7 -256 16 -262 10z"/>
<path d="M3659 3756 c-2 -2 -30 -6 -62 -10 -32 -3 -62 -8 -66 -10 -4 -3 -23
-8 -42 -11 -49 -9 -164 -51 -234 -87 -168 -85 -321 -221 -432 -384 -12 -19
-23 -37 -23 -40 0 -2 -11 -21 -23 -42 -23 -36 -83 -178 -92 -217 -2 -11 -10
-40 -16 -65 -18 -74 -22 -109 -23 -228 -1 -92 -4 -112 -16 -112 -96 -3 -273
-58 -380 -118 -167 -94 -307 -243 -390 -413 -17 -35 -35 -71 -39 -79 -5 -9
-12 -31 -17 -50 -4 -19 -9 -38 -10 -42 -1 -5 -3 -9 -4 -10 -1 -2 -4 -12 -5
-23 -2 -11 -8 -42 -13 -69 -6 -27 -9 -108 -7 -180 3 -105 8 -148 29 -217 65
-223 183 -393 361 -524 73 -53 186 -115 211 -115 8 0 14 -5 14 -12 0 -6 3 -9
6 -5 3 3 18 1 33 -5 29 -11 38 -13 136 -33 59 -12 302 -14 1560 -12 l1490 2
90 28 c442 138 715 509 701 952 -2 66 -7 129 -9 140 -3 11 -10 40 -16 65 -23
101 -72 208 -143 314 -57 84 -224 245 -255 246 -6 0 -13 4 -15 8 -4 12 -105
67 -158 86 l-45 17 -1 82 c-1 45 -4 93 -8 107 -3 14 -8 36 -11 49 -2 13 -23
62 -46 108 -44 89 -127 185 -209 240 -42 28 -180 96 -180 88 0 -2 -21 2 -47 9
-27 7 -88 12 -138 10 -83 -2 -105 -4 -161 -17 -28 -7 -147 -57 -161 -68 -8 -7
-23 12 -53 65 -110 200 -280 365 -479 465 -64 33 -209 85 -261 95 -19 3 -46 9
-60 12 -28 6 -276 15 -281 10z"/>
</g>
</svg>
